<svg width="289" height="289" viewBox="0 0 289 289" fill="none" xmlns="http://www.w3.org/2000/svg">
	<path fill-rule="evenodd" clip-rule="evenodd" d="M130.699 46.1327C135.689 58.4617 129.74 72.5022 117.411 77.4929C90.8889 88.2289 72.25 114.217 72.25 144.5C72.25 147.579 72.4413 150.603 72.8102 153.561C74.456 166.76 65.0905 178.794 51.8919 180.44C38.6933 182.085 26.6595 172.72 25.0137 159.521C24.3988 154.591 24.0833 149.577 24.0833 144.5C24.0833 93.9265 55.2528 50.6908 99.3386 32.8453C111.668 27.8547 125.708 33.8036 130.699 46.1327ZM65.5007 204.641C73.82 194.263 88.9771 192.594 99.3551 200.914C111.729 210.833 127.39 216.75 144.5 216.75C161.61 216.75 177.271 210.833 189.645 200.914C200.023 192.594 215.18 194.263 223.499 204.641C231.819 215.019 230.15 230.176 219.772 238.496C199.161 255.018 172.953 264.917 144.5 264.917C116.046 264.917 89.839 255.018 69.2282 238.496C58.8503 230.176 57.1814 215.019 65.5007 204.641Z" fill="#B1B9FF"/>
	<path fill-rule="evenodd" clip-rule="evenodd" d="M158.301 46.133C163.292 33.8039 177.332 27.855 189.661 32.8457C233.747 50.6911 264.917 93.9269 264.917 144.5C264.917 149.577 264.601 154.591 263.986 159.522C262.341 172.72 250.307 182.086 237.108 180.44C223.909 178.794 214.544 166.76 216.19 153.562C216.559 150.603 216.75 147.58 216.75 144.5C216.75 114.217 198.111 88.2292 171.589 77.4932C159.259 72.5025 153.311 58.4621 158.301 46.133Z" fill="#5D6CF5"/>
</svg>
