<svg width="44" height="44" viewBox="0 0 44 44" fill="none" xmlns="http://www.w3.org/2000/svg">
<path fill-rule="evenodd" clip-rule="evenodd" d="M8.66663 21.556C8.66663 20.3537 9.14424 19.2006 9.99441 18.3504C10.8446 17.5003 11.9976 17.0227 13.2 17.0227H16.14V19.6893H13.2C12.7049 19.6893 12.2301 19.886 11.88 20.2361C11.53 20.5861 11.3333 21.0609 11.3333 21.556V31.156C11.3333 31.6511 11.53 32.1259 11.88 32.4759C12.2301 32.826 12.7049 33.0227 13.2 33.0227H22.8C23.295 33.0227 23.7698 32.826 24.1199 32.4759C24.47 32.1259 24.6666 31.6511 24.6666 31.156V28.756H27.3333V31.156C27.3333 32.3583 26.8557 33.5114 26.0055 34.3615C25.1553 35.2117 24.0023 35.6893 22.8 35.6893H13.2C11.9976 35.6893 10.8446 35.2117 9.99441 34.3615C9.14424 33.5114 8.66663 32.3583 8.66663 31.156V21.556Z" fill="#146CFF"/>
<path fill-rule="evenodd" clip-rule="evenodd" d="M19.3333 10H30C31.4145 10 32.771 10.5619 33.7712 11.5621C34.7714 12.5623 35.3333 13.9188 35.3333 15.3333V26C35.3333 27.4145 34.7714 28.771 33.7712 29.7712C32.771 30.7714 31.4145 31.3333 30 31.3333H19.3333C17.9188 31.3333 16.5623 30.7714 15.5621 29.7712C14.5619 28.771 14 27.4145 14 26V15.3333C14 13.9188 14.5619 12.5623 15.5621 11.5621C16.5623 10.5619 17.9188 10 19.3333 10ZM19.3333 12.6667C18.6261 12.6667 17.9478 12.9476 17.4477 13.4477C16.9476 13.9478 16.6667 14.6261 16.6667 15.3333V26C16.6667 26.7072 16.9476 27.3855 17.4477 27.8856C17.9478 28.3857 18.6261 28.6667 19.3333 28.6667H30C30.7072 28.6667 31.3855 28.3857 31.8856 27.8856C32.3857 27.3855 32.6667 26.7072 32.6667 26V15.3333C32.6667 14.6261 32.3857 13.9478 31.8856 13.4477C31.3855 12.9476 30.7072 12.6667 30 12.6667H19.3333Z" fill="#146CFF"/>
</svg>
