<svg width="35" height="35" viewBox="0 0 35 35" fill="none" xmlns="http://www.w3.org/2000/svg">
<path d="M21.4583 21.2326C20.2978 22.1683 18.8519 22.6786 17.3611 22.6786C15.8703 22.6786 14.4245 22.1683 13.2639 21.2326C12.9094 20.9379 12.4523 20.7962 11.9932 20.8385C11.5341 20.8808 11.1107 21.1038 10.816 21.4583C10.5213 21.8129 10.3795 22.27 10.4218 22.729C10.4642 23.1881 10.6871 23.6116 11.0417 23.9062C12.8148 25.3865 15.0513 26.1973 17.3611 26.1973C19.6709 26.1973 21.9074 25.3865 23.6806 23.9062C24.0351 23.6116 24.2581 23.1881 24.3004 22.729C24.3427 22.27 24.2009 21.8129 23.9063 21.4583C23.7603 21.2828 23.5813 21.1377 23.3793 21.0313C23.1773 20.925 22.9563 20.8595 22.729 20.8385C22.27 20.7962 21.8129 20.9379 21.4583 21.2326ZM12.1528 15.625C12.4962 15.625 12.8318 15.5232 13.1173 15.3324C13.4028 15.1416 13.6253 14.8705 13.7567 14.5533C13.8881 14.236 13.9225 13.887 13.8555 13.5502C13.7885 13.2134 13.6232 12.9041 13.3804 12.6613C13.1376 12.4185 12.8283 12.2531 12.4915 12.1861C12.1547 12.1191 11.8056 12.1535 11.4884 12.2849C11.1712 12.4163 10.9 12.6389 10.7093 12.9244C10.5185 13.2099 10.4167 13.5455 10.4167 13.8889C10.4167 14.3493 10.5996 14.7909 10.9252 15.1165C11.2508 15.4421 11.6923 15.625 12.1528 15.625ZM22.5694 12.1528C22.2261 12.1528 21.8904 12.2546 21.6049 12.4454C21.3194 12.6361 21.0969 12.9073 20.9655 13.2245C20.8341 13.5417 20.7997 13.8908 20.8667 14.2276C20.9337 14.5644 21.099 14.8737 21.3418 15.1165C21.5846 15.3593 21.894 15.5246 22.2307 15.5916C22.5675 15.6586 22.9166 15.6242 23.2338 15.4928C23.5511 15.3614 23.8222 15.1389 24.013 14.8534C24.2037 14.5679 24.3056 14.2323 24.3056 13.8889C24.3056 13.4284 24.1226 12.9869 23.7971 12.6613C23.4715 12.3357 23.0299 12.1528 22.5694 12.1528ZM17.3611 0C13.9274 0 10.5708 1.01821 7.7158 2.92587C4.86078 4.83354 2.63556 7.54497 1.32154 10.7173C0.00752233 13.8896 -0.336286 17.3804 0.333597 20.7481C1.00348 24.1158 2.65696 27.2093 5.08496 29.6373C7.51295 32.0653 10.6064 33.7187 13.9741 34.3886C17.3419 35.0585 20.8326 34.7147 24.0049 33.4007C27.1773 32.0867 29.8887 29.8614 31.7963 27.0064C33.704 24.1514 34.7222 20.7948 34.7222 17.3611C34.7222 15.0812 34.2732 12.8236 33.4007 10.7173C32.5282 8.61095 31.2494 6.69708 29.6373 5.08495C28.0251 3.47282 26.1113 2.19401 24.0049 1.32154C21.8986 0.449058 19.641 0 17.3611 0ZM17.3611 31.25C14.6142 31.25 11.9289 30.4354 9.64486 28.9093C7.36085 27.3832 5.58068 25.214 4.52946 22.6762C3.47824 20.1383 3.20319 17.3457 3.7391 14.6515C4.27501 11.9573 5.59779 9.48258 7.54019 7.54018C9.48258 5.59779 11.9573 4.275 14.6515 3.73909C17.3457 3.20319 20.1383 3.47823 22.6762 4.52945C25.214 5.58067 27.3832 7.36084 28.9093 9.64485C30.4354 11.9289 31.25 14.6141 31.25 17.3611C31.25 21.0447 29.7867 24.5774 27.182 27.182C24.5774 29.7867 21.0447 31.25 17.3611 31.25Z" fill="black"/>
</svg>
