<svg width="18" height="26" viewBox="0 0 18 26" fill="none" xmlns="http://www.w3.org/2000/svg">
<path d="M8.9375 15.125C7.97683 15.125 7.16375 14.7923 6.49825 14.1268C5.83275 13.4613 5.5 12.6482 5.5 11.6875V3.4375C5.5 2.47683 5.83275 1.66375 6.49825 0.998249C7.16375 0.332749 7.97683 0 8.9375 0C9.89817 0 10.7113 0.332749 11.3768 0.998249C12.0423 1.66375 12.375 2.47683 12.375 3.4375V11.6875C12.375 12.6482 12.0423 13.4613 11.3768 14.1268C10.7113 14.7923 9.89817 15.125 8.9375 15.125ZM7.90625 25.0938V20.5614C5.6375 20.3022 3.7526 19.3292 2.25156 17.6423C0.750521 15.9552 0 13.9702 0 11.6875H2.0625C2.0625 13.5896 2.73281 15.2109 4.07344 16.5516C5.41406 17.8922 7.03542 18.5625 8.9375 18.5625C10.8396 18.5625 12.4609 17.8922 13.8016 16.5516C15.1422 15.2109 15.8125 13.5896 15.8125 11.6875H17.875C17.875 13.9702 17.1245 15.9552 15.6234 17.6423C14.1224 19.3292 12.2375 20.3022 9.96875 20.5614V25.0938H7.90625ZM8.9375 13.0625C9.32708 13.0625 9.65365 12.9307 9.91719 12.6672C10.1807 12.4036 10.3125 12.0771 10.3125 11.6875V3.4375C10.3125 3.04792 10.1807 2.72135 9.91719 2.45781C9.65365 2.19427 9.32708 2.0625 8.9375 2.0625C8.54792 2.0625 8.22135 2.19427 7.95781 2.45781C7.69427 2.72135 7.5625 3.04792 7.5625 3.4375V11.6875C7.5625 12.0771 7.69427 12.4036 7.95781 12.6672C8.22135 12.9307 8.54792 13.0625 8.9375 13.0625Z" fill="white"/>
</svg>
