<svg width="24" height="24" viewBox="0 0 24 24" fill="none" xmlns="http://www.w3.org/2000/svg">
<path d="M8.72727 0H2.18182C1.60316 0 1.04821 0.229869 0.63904 0.63904C0.229869 1.04821 0 1.60316 0 2.18182V8.72727C0 9.30593 0.229869 9.86088 0.63904 10.2701C1.04821 10.6792 1.60316 10.9091 2.18182 10.9091H8.72727C9.30593 10.9091 9.86088 10.6792 10.2701 10.2701C10.6792 9.86088 10.9091 9.30593 10.9091 8.72727V2.18182C10.9091 1.60316 10.6792 1.04821 10.2701 0.63904C9.86088 0.229869 9.30593 0 8.72727 0ZM8.72727 8.72727H2.18182V2.18182H8.72727V8.72727ZM8.72727 13.0909H2.18182C1.60316 13.0909 1.04821 13.3208 0.63904 13.7299C0.229869 14.1391 0 14.6941 0 15.2727V21.8182C0 22.3968 0.229869 22.9518 0.63904 23.361C1.04821 23.7701 1.60316 24 2.18182 24H8.72727C9.30593 24 9.86088 23.7701 10.2701 23.361C10.6792 22.9518 10.9091 22.3968 10.9091 21.8182V15.2727C10.9091 14.6941 10.6792 14.1391 10.2701 13.7299C9.86088 13.3208 9.30593 13.0909 8.72727 13.0909ZM8.72727 21.8182H2.18182V15.2727H8.72727V21.8182ZM21.8182 0H15.2727C14.6941 0 14.1391 0.229869 13.7299 0.63904C13.3208 1.04821 13.0909 1.60316 13.0909 2.18182V8.72727C13.0909 9.30593 13.3208 9.86088 13.7299 10.2701C14.1391 10.6792 14.6941 10.9091 15.2727 10.9091H21.8182C22.3968 10.9091 22.9518 10.6792 23.361 10.2701C23.7701 9.86088 24 9.30593 24 8.72727V2.18182C24 1.60316 23.7701 1.04821 23.361 0.63904C22.9518 0.229869 22.3968 0 21.8182 0ZM21.8182 8.72727H15.2727V2.18182H21.8182V8.72727ZM13.0909 18.5455V14.1818C13.0909 13.8925 13.2058 13.615 13.4104 13.4104C13.615 13.2058 13.8925 13.0909 14.1818 13.0909C14.4711 13.0909 14.7486 13.2058 14.9532 13.4104C15.1578 13.615 15.2727 13.8925 15.2727 14.1818V18.5455C15.2727 18.8348 15.1578 19.1123 14.9532 19.3168C14.7486 19.5214 14.4711 19.6364 14.1818 19.6364C13.8925 19.6364 13.615 19.5214 13.4104 19.3168C13.2058 19.1123 13.0909 18.8348 13.0909 18.5455ZM24 16.3636C24 16.653 23.8851 16.9304 23.6805 17.135C23.4759 17.3396 23.1984 17.4545 22.9091 17.4545H19.6364V22.9091C19.6364 23.1984 19.5214 23.4759 19.3168 23.6805C19.1123 23.8851 18.8348 24 18.5455 24H14.1818C13.8925 24 13.615 23.8851 13.4104 23.6805C13.2058 23.4759 13.0909 23.1984 13.0909 22.9091C13.0909 22.6198 13.2058 22.3423 13.4104 22.1377C13.615 21.9331 13.8925 21.8182 14.1818 21.8182H17.4545V14.1818C17.4545 13.8925 17.5695 13.615 17.7741 13.4104C17.9787 13.2058 18.2561 13.0909 18.5455 13.0909C18.8348 13.0909 19.1123 13.2058 19.3168 13.4104C19.5214 13.615 19.6364 13.8925 19.6364 14.1818V15.2727H22.9091C23.1984 15.2727 23.4759 15.3877 23.6805 15.5922C23.8851 15.7968 24 16.0743 24 16.3636ZM24 20.7273V22.9091C24 23.1984 23.8851 23.4759 23.6805 23.6805C23.4759 23.8851 23.1984 24 22.9091 24C22.6198 24 22.3423 23.8851 22.1377 23.6805C21.9331 23.4759 21.8182 23.1984 21.8182 22.9091V20.7273C21.8182 20.4379 21.9331 20.1605 22.1377 19.9559C22.3423 19.7513 22.6198 19.6364 22.9091 19.6364C23.1984 19.6364 23.4759 19.7513 23.6805 19.9559C23.8851 20.1605 24 20.4379 24 20.7273Z" fill="white"/>
</svg>
