<svg width="28" height="23" viewBox="0 0 28 23" fill="none" xmlns="http://www.w3.org/2000/svg">
<path d="M19.0833 6.82387C20.8051 9.12045 20.8051 13.569 19.0833 15.8655M22.9583 2.30304C28.1095 7.2217 28.1405 15.5 22.9583 20.3864M1 15.1667V7.52137C1 6.77995 1.57867 6.17804 2.29167 6.17804H6.92358C7.09451 6.17743 7.26355 6.14221 7.4205 6.0745C7.57745 6.00679 7.71906 5.908 7.83679 5.78408L11.7118 1.40791C12.5255 0.560578 13.9167 1.1612 13.9167 2.35858V20.3308C13.9167 21.5372 12.5088 22.1327 11.7002 21.2686L7.83808 16.917C7.72001 16.7895 7.57697 16.6877 7.41786 16.6179C7.25876 16.5482 7.08699 16.5119 6.91325 16.5114H2.29167C1.57867 16.5114 1 15.9095 1 15.1667Z" stroke="black" stroke-width="2" stroke-linecap="round" stroke-linejoin="round"/>
</svg>
