<svg width="28" height="19" viewBox="0 0 28 19" fill="none" xmlns="http://www.w3.org/2000/svg">
<path d="M1 15.0435V3.95652C1 3.1724 1.30436 2.4204 1.84614 1.86595C2.38791 1.31149 3.12271 1 3.88889 1H16.1667C16.9328 1 17.6676 1.31149 18.2094 1.86595C18.7512 2.4204 19.0556 3.1724 19.0556 3.95652V15.0435C19.0556 15.8276 18.7512 16.5796 18.2094 17.1341C17.6676 17.6885 16.9328 18 16.1667 18H3.88889C3.12271 18 2.38791 17.6885 1.84614 17.1341C1.30436 16.5796 1 15.8276 1 15.0435ZM25.7982 2.09539L20.0204 7.36243C19.9443 7.43164 19.8833 7.51654 19.8415 7.61157C19.7997 7.7066 19.778 7.8096 19.7778 7.91383V10.5422C19.778 10.6464 19.7997 10.7494 19.8415 10.8444C19.8833 10.9395 19.9443 11.0244 20.0204 11.0936L25.7982 16.3606C25.9023 16.4552 26.0309 16.517 26.1685 16.5386C26.3061 16.5601 26.4469 16.5405 26.5739 16.4821C26.7009 16.4237 26.8086 16.3289 26.8842 16.2093C26.9598 16.0897 27 15.9502 27 15.8077V2.64826C27 2.50578 26.9598 2.36633 26.8842 2.2467C26.8086 2.12706 26.7009 2.03233 26.5739 1.97391C26.4469 1.9155 26.3061 1.89589 26.1685 1.91744C26.0309 1.93899 25.9023 2.00079 25.7982 2.09539Z" stroke="white" stroke-width="2" stroke-linecap="round" stroke-linejoin="round"/>
</svg>
