<svg width="28" height="28" viewBox="0 0 28 28" fill="none" xmlns="http://www.w3.org/2000/svg">
<path fill-rule="evenodd" clip-rule="evenodd" d="M6.38163 6.38166C6.54569 6.2178 6.76809 6.12576 6.99996 6.12576C7.23184 6.12576 7.45423 6.2178 7.6183 6.38166L21.6183 20.3817C21.7043 20.4618 21.7732 20.5584 21.821 20.6657C21.8689 20.773 21.8946 20.8889 21.8967 21.0064C21.8987 21.1239 21.8771 21.2406 21.8331 21.3495C21.7891 21.4585 21.7236 21.5574 21.6405 21.6405C21.5574 21.7236 21.4584 21.7891 21.3495 21.8331C21.2405 21.8771 21.1238 21.8988 21.0064 21.8967C20.8889 21.8946 20.773 21.8689 20.6657 21.8211C20.5583 21.7732 20.4617 21.7043 20.3816 21.6183L6.38163 7.61833C6.21777 7.45426 6.12573 7.23187 6.12573 6.99999C6.12573 6.76812 6.21777 6.54572 6.38163 6.38166Z" fill="#262222"/>
<path fill-rule="evenodd" clip-rule="evenodd" d="M21.6182 6.38166C21.7821 6.54572 21.8741 6.76812 21.8741 6.99999C21.8741 7.23187 21.7821 7.45426 21.6182 7.61833L7.61824 21.6183C7.45237 21.7729 7.23298 21.857 7.00629 21.853C6.77961 21.849 6.56333 21.7572 6.40301 21.5969C6.24269 21.4366 6.15086 21.2203 6.14686 20.9936C6.14287 20.7669 6.22701 20.5475 6.38157 20.3817L20.3816 6.38166C20.5456 6.2178 20.768 6.12576 20.9999 6.12576C21.2318 6.12576 21.4542 6.2178 21.6182 6.38166Z" fill="#262222"/>
</svg>
